<mxfile host="app.diagrams.net" modified="2023-10-02T21:08:31.771Z" agent="Mozilla/5.0 (Windows NT 10.0; Win64; x64) AppleWebKit/537.36 (KHTML, like Gecko) Chrome/117.0.0.0 Safari/537.36" etag="hBV_U0SdzMjCAVWFKkGB" version="21.3.5" type="github">
  <diagram name="PÃ¡gina-1" id="dt_wzMB_MpYMas7HgOmG">
    <mxGraphModel dx="1965" dy="1044" grid="1" gridSize="10" guides="1" tooltips="1" connect="1" arrows="1" fold="1" page="1" pageScale="1" pageWidth="827" pageHeight="1169" math="0" shadow="0">
      <root>
        <mxCell id="0" />
        <mxCell id="1" parent="0" />
        <mxCell id="ap1h6tMwRlrXqY2yZWWm-24" value="" style="rounded=1;whiteSpace=wrap;html=1;fillColor=#d0cee2;strokeColor=#56517e;strokeWidth=3;" parent="1" vertex="1">
          <mxGeometry x="416" y="625.5" width="310" height="200" as="geometry" />
        </mxCell>
        <mxCell id="ap1h6tMwRlrXqY2yZWWm-18" value="&lt;b&gt;&lt;u&gt;&lt;font style=&quot;font-size: 19px;&quot;&gt;Space segment&lt;/font&gt;&lt;/u&gt;&lt;/b&gt;" style="rounded=1;whiteSpace=wrap;html=1;fillColor=#ffe6cc;strokeColor=#d79b00;strokeWidth=3;" parent="1" vertex="1">
          <mxGeometry x="790" y="20" width="160" height="460" as="geometry" />
        </mxCell>
        <mxCell id="ap1h6tMwRlrXqY2yZWWm-1" value="" style="rounded=1;whiteSpace=wrap;html=1;fillColor=#d5e8d4;strokeColor=#82b366;strokeWidth=3;" parent="1" vertex="1">
          <mxGeometry x="250" y="310" width="470" height="150" as="geometry" />
        </mxCell>
        <mxCell id="ap1h6tMwRlrXqY2yZWWm-3" value="" style="rounded=1;whiteSpace=wrap;html=1;fillColor=#bac8d3;strokeColor=#23445d;strokeWidth=3;" parent="1" vertex="1">
          <mxGeometry x="10" y="40" width="710" height="150" as="geometry" />
        </mxCell>
        <mxCell id="ap1h6tMwRlrXqY2yZWWm-4" value="" style="rounded=1;whiteSpace=wrap;html=1;fillColor=#b1ddf0;strokeColor=#10739e;strokeWidth=3;" parent="1" vertex="1">
          <mxGeometry x="12" y="620" width="310" height="205.5" as="geometry" />
        </mxCell>
        <mxCell id="ap1h6tMwRlrXqY2yZWWm-5" value="" style="fontColor=#0066CC;verticalAlign=top;verticalLabelPosition=bottom;labelPosition=center;align=center;html=1;outlineConnect=0;fillColor=#CCCCCC;strokeColor=#6881B3;gradientColor=none;gradientDirection=north;strokeWidth=2;shape=mxgraph.networks.satellite;rotation=-45;shadow=1;" parent="1" vertex="1">
          <mxGeometry x="447.5" y="50" width="100" height="100" as="geometry" />
        </mxCell>
        <mxCell id="kZGnujdcsOxxjqPQJTAh-9" style="edgeStyle=orthogonalEdgeStyle;rounded=1;orthogonalLoop=1;jettySize=auto;html=1;strokeWidth=3;fillColor=#d5e8d4;strokeColor=#006600;" edge="1" parent="1" source="ap1h6tMwRlrXqY2yZWWm-6" target="ap1h6tMwRlrXqY2yZWWm-12">
          <mxGeometry relative="1" as="geometry" />
        </mxCell>
        <mxCell id="ap1h6tMwRlrXqY2yZWWm-6" value="" style="fontColor=#0066CC;verticalAlign=top;verticalLabelPosition=bottom;labelPosition=center;align=center;html=1;outlineConnect=0;fillColor=#CCCCCC;strokeColor=#6881B3;gradientColor=none;gradientDirection=north;strokeWidth=2;shape=mxgraph.networks.satellite;flipH=1;rotation=45;shadow=1;" parent="1" vertex="1">
          <mxGeometry x="115" y="50" width="100" height="100" as="geometry" />
        </mxCell>
        <mxCell id="kZGnujdcsOxxjqPQJTAh-13" style="edgeStyle=orthogonalEdgeStyle;orthogonalLoop=1;jettySize=auto;html=1;exitX=0.7;exitY=0.42;exitDx=0;exitDy=0;exitPerimeter=0;entryX=0.07;entryY=0.93;entryDx=0;entryDy=0;entryPerimeter=0;strokeWidth=3;startArrow=classic;startFill=1;rounded=1;" edge="1" parent="1" source="ap1h6tMwRlrXqY2yZWWm-7" target="ap1h6tMwRlrXqY2yZWWm-5">
          <mxGeometry relative="1" as="geometry">
            <Array as="points">
              <mxPoint x="378" y="250" />
              <mxPoint x="498" y="250" />
            </Array>
          </mxGeometry>
        </mxCell>
        <mxCell id="kZGnujdcsOxxjqPQJTAh-18" style="edgeStyle=orthogonalEdgeStyle;orthogonalLoop=1;jettySize=auto;html=1;exitX=0.07;exitY=0.93;exitDx=0;exitDy=0;exitPerimeter=0;entryX=0.91;entryY=0.09;entryDx=0;entryDy=0;entryPerimeter=0;strokeWidth=3;rounded=1;endArrow=none;endFill=0;" edge="1" parent="1" source="ap1h6tMwRlrXqY2yZWWm-7" target="kZGnujdcsOxxjqPQJTAh-1">
          <mxGeometry relative="1" as="geometry">
            <Array as="points">
              <mxPoint x="369" y="580" />
              <mxPoint x="580" y="580" />
              <mxPoint x="580" y="672" />
            </Array>
          </mxGeometry>
        </mxCell>
        <mxCell id="ap1h6tMwRlrXqY2yZWWm-7" value="" style="verticalAlign=top;verticalLabelPosition=bottom;labelPosition=center;align=center;html=1;outlineConnect=0;fillColor=#d5e8d4;strokeColor=#82b366;gradientDirection=north;strokeWidth=2;shape=mxgraph.networks.satellite;rotation=-45;shadow=1;" parent="1" vertex="1">
          <mxGeometry x="319" y="330" width="100" height="100" as="geometry" />
        </mxCell>
        <mxCell id="kZGnujdcsOxxjqPQJTAh-14" style="edgeStyle=orthogonalEdgeStyle;orthogonalLoop=1;jettySize=auto;html=1;exitX=0.15;exitY=0;exitDx=0;exitDy=0;exitPerimeter=0;strokeWidth=3;endArrow=none;endFill=0;startArrow=classic;startFill=1;rounded=1;" edge="1" parent="1" source="ap1h6tMwRlrXqY2yZWWm-9" target="ap1h6tMwRlrXqY2yZWWm-5">
          <mxGeometry relative="1" as="geometry">
            <Array as="points">
              <mxPoint x="581" y="250" />
              <mxPoint x="498" y="250" />
            </Array>
          </mxGeometry>
        </mxCell>
        <mxCell id="kZGnujdcsOxxjqPQJTAh-17" style="edgeStyle=orthogonalEdgeStyle;orthogonalLoop=1;jettySize=auto;html=1;exitX=0.07;exitY=0.93;exitDx=0;exitDy=0;exitPerimeter=0;strokeWidth=3;rounded=1;endArrow=classic;endFill=1;entryX=0.91;entryY=0.09;entryDx=0;entryDy=0;entryPerimeter=0;" edge="1" parent="1" source="ap1h6tMwRlrXqY2yZWWm-9" target="kZGnujdcsOxxjqPQJTAh-1">
          <mxGeometry relative="1" as="geometry">
            <Array as="points" />
          </mxGeometry>
        </mxCell>
        <mxCell id="ap1h6tMwRlrXqY2yZWWm-9" value="" style="verticalAlign=top;verticalLabelPosition=bottom;labelPosition=center;align=center;html=1;outlineConnect=0;fillColor=#d5e8d4;strokeColor=#82b366;gradientDirection=north;strokeWidth=2;shape=mxgraph.networks.satellite;rotation=-5;gradientColor=none;shadow=1;" parent="1" vertex="1">
          <mxGeometry x="570" y="330" width="100" height="100" as="geometry" />
        </mxCell>
        <mxCell id="kZGnujdcsOxxjqPQJTAh-10" style="edgeStyle=orthogonalEdgeStyle;orthogonalLoop=1;jettySize=auto;html=1;exitX=0.5;exitY=0;exitDx=0;exitDy=0;entryX=0.07;entryY=0.93;entryDx=0;entryDy=0;entryPerimeter=0;fillColor=#f8cecc;strokeColor=#FF0000;strokeWidth=3;curved=1;dashed=1;" edge="1" parent="1" source="ap1h6tMwRlrXqY2yZWWm-12" target="ap1h6tMwRlrXqY2yZWWm-7">
          <mxGeometry relative="1" as="geometry" />
        </mxCell>
        <mxCell id="kZGnujdcsOxxjqPQJTAh-12" style="edgeStyle=orthogonalEdgeStyle;orthogonalLoop=1;jettySize=auto;html=1;exitX=0.5;exitY=0;exitDx=0;exitDy=0;entryX=0.07;entryY=0.93;entryDx=0;entryDy=0;entryPerimeter=0;curved=1;strokeWidth=3;strokeColor=#FF0000;dashed=1;" edge="1" parent="1" source="ap1h6tMwRlrXqY2yZWWm-12" target="ap1h6tMwRlrXqY2yZWWm-9">
          <mxGeometry relative="1" as="geometry" />
        </mxCell>
        <mxCell id="ap1h6tMwRlrXqY2yZWWm-12" value="" style="shape=image;html=1;verticalAlign=top;verticalLabelPosition=bottom;labelBackgroundColor=#ffffff;imageAspect=0;aspect=fixed;image=https://cdn4.iconfinder.com/data/icons/public-transportation-11/128/Public_Transportation_EXPANDED-05-128.png;imageBackground=none;" parent="1" vertex="1">
          <mxGeometry y="638.5" width="174" height="174" as="geometry" />
        </mxCell>
        <mxCell id="ap1h6tMwRlrXqY2yZWWm-14" value="GNSS Satellites" style="rounded=1;whiteSpace=wrap;html=1;" parent="1" vertex="1">
          <mxGeometry x="810" y="40" width="120" height="150" as="geometry" />
        </mxCell>
        <mxCell id="ap1h6tMwRlrXqY2yZWWm-15" value="GNSS-R Constellation" style="rounded=1;whiteSpace=wrap;html=1;" parent="1" vertex="1">
          <mxGeometry x="810" y="310" width="120" height="150" as="geometry" />
        </mxCell>
        <mxCell id="kZGnujdcsOxxjqPQJTAh-1" value="" style="fontColor=#0066CC;verticalAlign=top;verticalLabelPosition=bottom;labelPosition=center;align=center;html=1;outlineConnect=0;fillColor=#CCCCCC;strokeColor=#6881B3;gradientColor=none;gradientDirection=north;strokeWidth=2;shape=mxgraph.networks.satellite_dish;flipV=0;flipH=1;shadow=1;" vertex="1" parent="1">
          <mxGeometry x="570" y="660.25" width="115" height="125" as="geometry" />
        </mxCell>
        <mxCell id="kZGnujdcsOxxjqPQJTAh-2" value="" style="fontColor=#0066CC;verticalAlign=top;verticalLabelPosition=bottom;labelPosition=center;align=center;html=1;outlineConnect=0;fillColor=#CCCCCC;strokeColor=#6881B3;gradientColor=none;gradientDirection=north;strokeWidth=2;shape=mxgraph.networks.server_storage;shadow=1;" vertex="1" parent="1">
          <mxGeometry x="435" y="662" width="125" height="127" as="geometry" />
        </mxCell>
        <mxCell id="kZGnujdcsOxxjqPQJTAh-20" value="&lt;font style=&quot;font-size: 19px;&quot;&gt;&lt;u&gt;&lt;b&gt;User segment&lt;/b&gt;&lt;/u&gt;&lt;/font&gt;" style="rounded=1;whiteSpace=wrap;html=1;fillColor=#ffe6cc;strokeColor=#d79b00;strokeWidth=3;" vertex="1" parent="1">
          <mxGeometry x="79.5" y="840" width="175" height="60" as="geometry" />
        </mxCell>
        <mxCell id="kZGnujdcsOxxjqPQJTAh-21" value="&lt;font style=&quot;font-size: 19px;&quot;&gt;&lt;b&gt;&lt;u&gt;Ground segment&lt;/u&gt;&lt;/b&gt;&lt;/font&gt;" style="rounded=1;whiteSpace=wrap;html=1;fillColor=#ffe6cc;strokeColor=#d79b00;strokeWidth=3;" vertex="1" parent="1">
          <mxGeometry x="466.5" y="840" width="209" height="60" as="geometry" />
        </mxCell>
        <mxCell id="kZGnujdcsOxxjqPQJTAh-23" style="edgeStyle=orthogonalEdgeStyle;rounded=0;orthogonalLoop=1;jettySize=auto;html=1;exitX=1.026;exitY=0.505;exitDx=0;exitDy=0;exitPerimeter=0;strokeWidth=3;startArrow=classic;startFill=1;" edge="1" parent="1" source="kZGnujdcsOxxjqPQJTAh-22" target="kZGnujdcsOxxjqPQJTAh-2">
          <mxGeometry relative="1" as="geometry" />
        </mxCell>
        <mxCell id="kZGnujdcsOxxjqPQJTAh-22" value="" style="points=[[0.35,0,0],[0.98,0.51,0],[1,0.71,0],[0.67,1,0],[0,0.795,0],[0,0.65,0]];verticalLabelPosition=bottom;sketch=0;html=1;verticalAlign=top;aspect=fixed;align=center;pointerEvents=1;shape=mxgraph.cisco19.user;fillColor=#000000;strokeColor=#36393d;shadow=1;" vertex="1" parent="1">
          <mxGeometry x="190" y="670.5" width="110" height="110" as="geometry" />
        </mxCell>
        <mxCell id="kZGnujdcsOxxjqPQJTAh-24" value="&lt;font style=&quot;font-size: 50px;&quot;&gt;...&lt;/font&gt;" style="text;html=1;strokeColor=none;fillColor=none;align=center;verticalAlign=middle;whiteSpace=wrap;rounded=0;" vertex="1" parent="1">
          <mxGeometry x="467.5" y="360" width="60" height="30" as="geometry" />
        </mxCell>
        <mxCell id="kZGnujdcsOxxjqPQJTAh-25" value="&lt;font style=&quot;font-size: 50px;&quot;&gt;...&lt;/font&gt;" style="text;html=1;strokeColor=none;fillColor=none;align=center;verticalAlign=middle;whiteSpace=wrap;rounded=0;" vertex="1" parent="1">
          <mxGeometry x="300" y="80" width="60" height="30" as="geometry" />
        </mxCell>
        <mxCell id="kZGnujdcsOxxjqPQJTAh-26" style="edgeStyle=orthogonalEdgeStyle;rounded=0;orthogonalLoop=1;jettySize=auto;html=1;exitX=0.5;exitY=0;exitDx=0;exitDy=0;entryX=0.5;entryY=1;entryDx=0;entryDy=0;endArrow=none;endFill=0;strokeWidth=3;fillColor=#b1ddf0;strokeColor=#10739e;" edge="1" parent="1" source="ap1h6tMwRlrXqY2yZWWm-4" target="ap1h6tMwRlrXqY2yZWWm-4">
          <mxGeometry relative="1" as="geometry">
            <Array as="points">
              <mxPoint x="167" y="740" />
              <mxPoint x="167" y="740" />
            </Array>
          </mxGeometry>
        </mxCell>
      </root>
    </mxGraphModel>
  </diagram>
</mxfile>
